# xmcd CD database file
#
# Track frame offsets:
#	150
#	23520
#	43988
#	65207
#	88477
#	109849
#	128255
#	154438
#
# Disc length: 2228 seconds
#
# Revision: 0
# Processed by: cddbd v1.5PL3 Copyright (c) Steve Scherf et al.
# Submitted via: CDex 1.51
#
DISCID=6d08b208
DTITLE=SOULD UNLIMITED - TRY ME TONIGHT
DYEAR=1900
DGENRE=Blues
TTITLE0=GOOD LOVIN
TTITLE1=TRY ME TONIGHT
TTITLE2=I`M FOR REAL
TTITLE3=COWBOYS AIN`T THE ONLY ONE TO RIDW
TTITLE4=YOU ARE
TTITLE5=I LOVE THE WAY YOU LOOKL IN THE MORN ING
TTITLE6=I`M TIRED OF WSITING ON YOUR LOVE
TTITLE7=DIAMOND IN THE ROUGH
EXTD=
EXTT0=
EXTT1=
EXTT2=
EXTT3=
EXTT4=
EXTT5=
EXTT6=
EXTT7=
PLAYORDER=
